<?xml version="1.0" encoding="utf-8"?>
<!-- Generator: Circuit Diagram, cdlibrary.dll 1.0.0.0 -->
<!DOCTYPE svg PUBLIC "-//W3C//DTD SVG 1.1//EN" "http://www.w3.org/Graphics/SVG/1.1/DTD/svg11.dtd">
<svg version="1.1" width="660" height="840" xmlns="http://www.w3.org/2000/svg">
	<text x="40" y="550" style="font-family:Arial;font-size:11px;text-anchor:start" dy=".3em">ARGB</text>
	<line x1="210" y1="450" x2="290" y2="450" style="stroke:rgb(0, 0, 0);stroke-linecap:square;stroke-width:2" />
	<line x1="210" y1="450" x2="210" y2="530" style="stroke:rgb(0, 0, 0);stroke-linecap:square;stroke-width:2" />
	<line x1="160" y1="530" x2="210" y2="530" style="stroke:rgb(0, 0, 0);stroke-linecap:square;stroke-width:2" />
	<line x1="190" y1="410" x2="290" y2="410" style="stroke:rgb(0, 0, 0);stroke-linecap:square;stroke-width:2" />
	<line x1="190" y1="410" x2="190" y2="500" style="stroke:rgb(0, 0, 0);stroke-linecap:square;stroke-width:2" />
	<line x1="160" y1="500" x2="190" y2="500" style="stroke:rgb(0, 0, 0);stroke-linecap:square;stroke-width:2" />
	<line x1="160" y1="390" x2="290" y2="390" style="stroke:rgb(0, 0, 0);stroke-linecap:square;stroke-width:2" />
	<line x1="160" y1="390" x2="160" y2="470" style="stroke:rgb(0, 0, 0);stroke-linecap:square;stroke-width:2" />
	<line x1="30" y1="430" x2="290" y2="430" style="stroke:rgb(0, 0, 0);stroke-linecap:square;stroke-width:2" />
	<line x1="30" y1="430" x2="30" y2="530" style="stroke:rgb(0, 0, 0);stroke-linecap:square;stroke-width:2" />
	<line x1="90" y1="470" x2="91" y2="470" style="stroke:rgb(0, 0, 0);stroke-linecap:square;stroke-width:2" />
	<path d="M 91,470 L 101,470 L 105,465 L 113,475 L 121,465 L 129,475 L 137,465 L 145,475 L 149,470 L 159,470" style="fill-opacity:0;fill:rgb(0, 0, 0);stroke:rgb(0, 0, 0);stroke-linecap:square;stroke-width:2" />
	<line x1="159" y1="470" x2="160" y2="470" style="stroke:rgb(0, 0, 0);stroke-linecap:square;stroke-width:2" />
	<text x="125" y="453" style="font-family:Arial;font-size:11px;text-anchor:middle" dy=".3em">330 Ω</text>
	<line x1="90" y1="500" x2="91" y2="500" style="stroke:rgb(0, 0, 0);stroke-linecap:square;stroke-width:2" />
	<path d="M 91,500 L 101,500 L 105,495 L 113,505 L 121,495 L 129,505 L 137,495 L 145,505 L 149,500 L 159,500" style="fill-opacity:0;fill:rgb(0, 0, 0);stroke:rgb(0, 0, 0);stroke-linecap:square;stroke-width:2" />
	<line x1="159" y1="500" x2="160" y2="500" style="stroke:rgb(0, 0, 0);stroke-linecap:square;stroke-width:2" />
	<text x="125" y="483" style="font-family:Arial;font-size:11px;text-anchor:middle" dy=".3em">330 Ω</text>
	<line x1="90" y1="530" x2="91" y2="530" style="stroke:rgb(0, 0, 0);stroke-linecap:square;stroke-width:2" />
	<path d="M 91,530 L 101,530 L 105,525 L 113,535 L 121,525 L 129,535 L 137,525 L 145,535 L 149,530 L 159,530" style="fill-opacity:0;fill:rgb(0, 0, 0);stroke:rgb(0, 0, 0);stroke-linecap:square;stroke-width:2" />
	<line x1="159" y1="530" x2="160" y2="530" style="stroke:rgb(0, 0, 0);stroke-linecap:square;stroke-width:2" />
	<text x="125" y="513" style="font-family:Arial;font-size:11px;text-anchor:middle" dy=".3em">330 Ω</text>
	<line x1="30" y1="530" x2="90" y2="530" style="stroke:rgb(0, 0, 0);stroke-linecap:square;stroke-width:2" />
	<path d="M 67,530 M 67,522 L 67,538 M 67,530 L 52,538 L 52,522 L 67,530" style="fill-opacity:0;fill:rgb(0, 0, 0);stroke:rgb(0, 0, 0);stroke-linecap:square;stroke-width:2" />
	<path d="M 65,530 M 63,519 L 71,511 M 72,510 L 68,512 L 70,514 L 72,510 L 68,512" style="fill-opacity:0;fill:rgb(0, 0, 0);stroke:rgb(0, 0, 0);stroke-linecap:square;stroke-width:2" />
	<path d="M 65,530 M 69,526 L 77,518 M 78,517 L 74,519 L 76,521 L 78,517 L 74,519" style="fill-opacity:0;fill:rgb(0, 0, 0);stroke:rgb(0, 0, 0);stroke-linecap:square;stroke-width:2" />
	<line x1="30" y1="500" x2="90" y2="500" style="stroke:rgb(0, 0, 0);stroke-linecap:square;stroke-width:2" />
	<path d="M 67,500 M 67,492 L 67,508 M 67,500 L 52,508 L 52,492 L 67,500" style="fill-opacity:0;fill:rgb(0, 0, 0);stroke:rgb(0, 0, 0);stroke-linecap:square;stroke-width:2" />
	<path d="M 65,500 M 63,489 L 71,481 M 72,480 L 68,482 L 70,484 L 72,480 L 68,482" style="fill-opacity:0;fill:rgb(0, 0, 0);stroke:rgb(0, 0, 0);stroke-linecap:square;stroke-width:2" />
	<path d="M 65,500 M 69,496 L 77,488 M 78,487 L 74,489 L 76,491 L 78,487 L 74,489" style="fill-opacity:0;fill:rgb(0, 0, 0);stroke:rgb(0, 0, 0);stroke-linecap:square;stroke-width:2" />
	<line x1="30" y1="470" x2="90" y2="470" style="stroke:rgb(0, 0, 0);stroke-linecap:square;stroke-width:2" />
	<path d="M 67,470 M 67,462 L 67,478 M 67,470 L 52,478 L 52,462 L 67,470" style="fill-opacity:0;fill:rgb(0, 0, 0);stroke:rgb(0, 0, 0);stroke-linecap:square;stroke-width:2" />
	<path d="M 65,470 M 63,459 L 71,451 M 72,450 L 68,452 L 70,454 L 72,450 L 68,452" style="fill-opacity:0;fill:rgb(0, 0, 0);stroke:rgb(0, 0, 0);stroke-linecap:square;stroke-width:2" />
	<path d="M 65,470 M 69,466 L 77,458 M 78,457 L 74,459 L 76,461 L 78,457 L 74,459" style="fill-opacity:0;fill:rgb(0, 0, 0);stroke:rgb(0, 0, 0);stroke-linecap:square;stroke-width:2" />
	<line x1="500" y1="30" x2="500" y2="60" style="stroke:rgb(0, 0, 0);stroke-linecap:square;stroke-width:2" />
	<line x1="260" y1="30" x2="500" y2="30" style="stroke:rgb(0, 0, 0);stroke-linecap:square;stroke-width:2" />
	<line x1="260" y1="30" x2="260" y2="90" style="stroke:rgb(0, 0, 0);stroke-linecap:square;stroke-width:2" />
	<line x1="200" y1="120" x2="290" y2="120" style="stroke:rgb(0, 0, 0);stroke-linecap:square;stroke-width:2" />
	<line x1="200" y1="120" x2="200" y2="330" style="stroke:rgb(0, 0, 0);stroke-linecap:square;stroke-width:2" />
	<line x1="200" y1="330" x2="290" y2="330" style="stroke:rgb(0, 0, 0);stroke-linecap:square;stroke-width:2" />
	<line x1="220" y1="370" x2="290" y2="370" style="stroke:rgb(0, 0, 0);stroke-linecap:square;stroke-width:2" />
	<line x1="220" y1="70" x2="220" y2="370" style="stroke:rgb(0, 0, 0);stroke-linecap:square;stroke-width:2" />
	<line x1="220" y1="70" x2="290" y2="70" style="stroke:rgb(0, 0, 0);stroke-linecap:square;stroke-width:2" />
	<line x1="240" y1="310" x2="290" y2="310" style="stroke:rgb(0, 0, 0);stroke-linecap:square;stroke-width:2" />
	<line x1="240" y1="220" x2="240" y2="310" style="stroke:rgb(0, 0, 0);stroke-linecap:square;stroke-width:2" />
	<line x1="240" y1="220" x2="470" y2="220" style="stroke:rgb(0, 0, 0);stroke-linecap:square;stroke-width:2" />
	<line x1="470" y1="130" x2="470" y2="220" style="stroke:rgb(0, 0, 0);stroke-linecap:square;stroke-width:2" />
	<line x1="410" y1="120" x2="450" y2="120" style="stroke:rgb(0, 0, 0);stroke-linecap:square;stroke-width:2" />
	<line x1="410" y1="70" x2="430" y2="70" style="stroke:rgb(0, 0, 0);stroke-linecap:square;stroke-width:2" />
	<line x1="430" y1="70" x2="430" y2="180" style="stroke:rgb(0, 0, 0);stroke-linecap:square;stroke-width:2" />
	<line x1="280" y1="180" x2="430" y2="180" style="stroke:rgb(0, 0, 0);stroke-linecap:square;stroke-width:2" />
	<line x1="280" y1="180" x2="280" y2="290" style="stroke:rgb(0, 0, 0);stroke-linecap:square;stroke-width:2" />
	<line x1="280" y1="290" x2="290" y2="290" style="stroke:rgb(0, 0, 0);stroke-linecap:square;stroke-width:2" />
	<line x1="450" y1="260" x2="455" y2="260" style="stroke:rgb(0, 0, 0);stroke-linecap:square;stroke-width:2" />
	<line x1="495" y1="260" x2="500" y2="260" style="stroke:rgb(0, 0, 0);stroke-linecap:square;stroke-width:2" />
	<path d="M 455,260 L 457,260 L 460,253 L 466,267 L 472,253 L 478,267 L 484,253 L 490,267 L 493,260 L 495,260" style="fill-opacity:0;fill:rgb(0, 0, 0);stroke:rgb(0, 0, 0);stroke-linecap:square;stroke-width:2" />
	<text x="475" y="243" style="font-family:Arial;font-size:11px;text-anchor:middle" dy=".3em">1 MΩ</text>
	<line x1="260" y1="350" x2="290" y2="350" style="stroke:rgb(0, 0, 0);stroke-linecap:square;stroke-width:2" />
	<line x1="260" y1="90" x2="260" y2="350" style="stroke:rgb(0, 0, 0);stroke-linecap:square;stroke-width:2" />
	<line x1="260" y1="100" x2="290" y2="100" style="stroke:rgb(0, 0, 0);stroke-linecap:square;stroke-width:2" />
	<line x1="260" y1="90" x2="290" y2="90" style="stroke:rgb(0, 0, 0);stroke-linecap:square;stroke-width:2" />
	<line x1="410" y1="100" x2="500" y2="100" style="stroke:rgb(0, 0, 0);stroke-linecap:square;stroke-width:2" />
	<line x1="410" y1="90" x2="500" y2="90" style="stroke:rgb(0, 0, 0);stroke-linecap:square;stroke-width:2" />
	<line x1="180" y1="110" x2="290" y2="110" style="stroke:rgb(0, 0, 0);stroke-linecap:square;stroke-width:2" />
	<line x1="180" y1="110" x2="180" y2="130" style="stroke:rgb(0, 0, 0);stroke-linecap:square;stroke-width:2" />
	<line x1="160" y1="130" x2="180" y2="130" style="stroke:rgb(0, 0, 0);stroke-linecap:square;stroke-width:2" />
	<line x1="180" y1="80" x2="290" y2="80" style="stroke:rgb(0, 0, 0);stroke-linecap:square;stroke-width:2" />
	<line x1="180" y1="70" x2="180" y2="80" style="stroke:rgb(0, 0, 0);stroke-linecap:square;stroke-width:2" />
	<line x1="160" y1="70" x2="180" y2="70" style="stroke:rgb(0, 0, 0);stroke-linecap:square;stroke-width:2" />
	<line x1="410" y1="110" x2="520" y2="110" style="stroke:rgb(0, 0, 0);stroke-linecap:square;stroke-width:2" />
	<line x1="520" y1="110" x2="520" y2="130" style="stroke:rgb(0, 0, 0);stroke-linecap:square;stroke-width:2" />
	<line x1="520" y1="130" x2="570" y2="130" style="stroke:rgb(0, 0, 0);stroke-linecap:square;stroke-width:2" />
	<line x1="410" y1="80" x2="520" y2="80" style="stroke:rgb(0, 0, 0);stroke-linecap:square;stroke-width:2" />
	<line x1="520" y1="70" x2="520" y2="80" style="stroke:rgb(0, 0, 0);stroke-linecap:square;stroke-width:2" />
	<line x1="520" y1="70" x2="570" y2="70" style="stroke:rgb(0, 0, 0);stroke-linecap:square;stroke-width:2" />
	<line x1="280" y1="60" x2="290" y2="60" style="stroke:rgb(0, 0, 0);stroke-linecap:square;stroke-width:2" />
	<line x1="280" y1="60" x2="280" y2="160" style="stroke:rgb(0, 0, 0);stroke-linecap:square;stroke-width:2" />
	<line x1="280" y1="160" x2="410" y2="160" style="stroke:rgb(0, 0, 0);stroke-linecap:square;stroke-width:2" />
	<line x1="410" y1="130" x2="410" y2="160" style="stroke:rgb(0, 0, 0);stroke-linecap:square;stroke-width:2" />
	<line x1="410" y1="130" x2="470" y2="130" style="stroke:rgb(0, 0, 0);stroke-linecap:square;stroke-width:2" />
	<line x1="450" y1="120" x2="450" y2="330" style="stroke:rgb(0, 0, 0);stroke-linecap:square;stroke-width:2" />
	<line x1="420" y1="330" x2="450" y2="330" style="stroke:rgb(0, 0, 0);stroke-linecap:square;stroke-width:2" />
	<line x1="420" y1="310" x2="500" y2="310" style="stroke:rgb(0, 0, 0);stroke-linecap:square;stroke-width:2" />
	<line x1="500" y1="60" x2="500" y2="310" style="stroke:rgb(0, 0, 0);stroke-linecap:square;stroke-width:2" />
	<line x1="290" y1="130" x2="290" y2="200" style="stroke:rgb(0, 0, 0);stroke-linecap:square;stroke-width:2" />
	<line x1="290" y1="200" x2="420" y2="200" style="stroke:rgb(0, 0, 0);stroke-linecap:square;stroke-width:2" />
	<line x1="420" y1="200" x2="420" y2="270" style="stroke:rgb(0, 0, 0);stroke-linecap:square;stroke-width:2" />
	<line x1="290" y1="810" x2="470" y2="810" style="stroke:rgb(0, 0, 0);stroke-linecap:square;stroke-width:2" />
	<line x1="290" y1="790" x2="290" y2="810" style="stroke:rgb(0, 0, 0);stroke-linecap:square;stroke-width:2" />
	<line x1="420" y1="290" x2="470" y2="290" style="stroke:rgb(0, 0, 0);stroke-linecap:square;stroke-width:2" />
	<line x1="470" y1="290" x2="470" y2="810" style="stroke:rgb(0, 0, 0);stroke-linecap:square;stroke-width:2" />
	<line x1="240" y1="630" x2="290" y2="630" style="stroke:rgb(0, 0, 0);stroke-linecap:square;stroke-width:2" />
	<line x1="240" y1="630" x2="240" y2="710" style="stroke:rgb(0, 0, 0);stroke-linecap:square;stroke-width:2" />
	<line x1="200" y1="710" x2="240" y2="710" style="stroke:rgb(0, 0, 0);stroke-linecap:square;stroke-width:2" />
	<line x1="200" y1="650" x2="280" y2="650" style="stroke:rgb(0, 0, 0);stroke-linecap:square;stroke-width:2" />
	<line x1="200" y1="650" x2="200" y2="660" style="stroke:rgb(0, 0, 0);stroke-linecap:square;stroke-width:2" />
	<line x1="200" y1="700" x2="200" y2="710" style="stroke:rgb(0, 0, 0);stroke-linecap:square;stroke-width:2" />
	<path d="M 200,660 L 200,662 L 193,665 L 207,671 L 193,677 L 207,683 L 193,689 L 207,695 L 200,698 L 200,700" style="fill-opacity:0;fill:rgb(0, 0, 0);stroke:rgb(0, 0, 0);stroke-linecap:square;stroke-width:2" />
	<text x="186" y="680" style="font-family:Arial;font-size:11px;text-anchor:end" dy=".3em">470 Ω</text>
	<line x1="200" y1="710" x2="200" y2="720" style="stroke:rgb(0, 0, 0);stroke-linecap:square;stroke-width:2" />
	<line x1="200" y1="760" x2="200" y2="770" style="stroke:rgb(0, 0, 0);stroke-linecap:square;stroke-width:2" />
	<path d="M 200,720 L 200,722 L 193,725 L 207,731 L 193,737 L 207,743 L 193,749 L 207,755 L 200,758 L 200,760" style="fill-opacity:0;fill:rgb(0, 0, 0);stroke:rgb(0, 0, 0);stroke-linecap:square;stroke-width:2" />
	<text x="186" y="740" style="font-family:Arial;font-size:11px;text-anchor:end" dy=".3em">330 Ω</text>
	<line x1="200" y1="770" x2="290" y2="770" style="stroke:rgb(0, 0, 0);stroke-linecap:square;stroke-width:2" />
	<line x1="260" y1="610" x2="290" y2="610" style="stroke:rgb(0, 0, 0);stroke-linecap:square;stroke-width:2" />
	<line x1="260" y1="610" x2="260" y2="750" style="stroke:rgb(0, 0, 0);stroke-linecap:square;stroke-width:2" />
	<line x1="260" y1="750" x2="290" y2="750" style="stroke:rgb(0, 0, 0);stroke-linecap:square;stroke-width:2" />
	<line x1="280" y1="650" x2="290" y2="650" style="stroke:rgb(0, 0, 0);stroke-linecap:square;stroke-width:2" />
	<line x1="280" y1="650" x2="280" y2="710" style="stroke:rgb(0, 0, 0);stroke-linecap:square;stroke-width:2" />
	<line x1="280" y1="710" x2="290" y2="710" style="stroke:rgb(0, 0, 0);stroke-linecap:square;stroke-width:2" />
	<line x1="410" y1="60" x2="446" y2="60" style="stroke:rgb(0, 0, 0);stroke-linecap:square;stroke-width:2" />
	<line x1="446" y1="50" x2="446" y2="70" style="stroke:rgb(0, 0, 0);stroke-linecap:square;stroke-width:2" />
	<line x1="452" y1="55" x2="452" y2="65" style="stroke:rgb(0, 0, 0);stroke-linecap:square;stroke-width:2" />
	<line x1="458" y1="50" x2="458" y2="70" style="stroke:rgb(0, 0, 0);stroke-linecap:square;stroke-width:2" />
	<line x1="464" y1="55" x2="464" y2="65" style="stroke:rgb(0, 0, 0);stroke-linecap:square;stroke-width:2" />
	<line x1="464" y1="60" x2="500" y2="60" style="stroke:rgb(0, 0, 0);stroke-linecap:square;stroke-width:2" />
	<text x="455" y="48" style="font-family:Arial;font-size:12px;text-anchor:middle" dy="-0.3em">+9V</text>
	<text x="350" y="40" style="font-family:Arial;font-size:11px;text-anchor:middle" dy=".3em">L293D</text>
	<rect x="300" y="50" width="100" height="90" style="fill-opacity:0;stroke:rgb(0, 0, 0);stroke-width:2" />
	<line x1="290" y1="60" x2="300" y2="60" style="stroke:rgb(0, 0, 0);stroke-linecap:square;stroke-width:2" />
	<text x="304" y="60" style="font-family:Arial;font-size:11px;text-anchor:start" dy=".3em">En 3, 4</text>
	<line x1="400" y1="60" x2="410" y2="60" style="stroke:rgb(0, 0, 0);stroke-linecap:square;stroke-width:2" />
	<text x="396" y="60" style="font-family:Arial;font-size:11px;text-anchor:end" dy=".3em">Vcc 2</text>
	<line x1="290" y1="70" x2="300" y2="70" style="stroke:rgb(0, 0, 0);stroke-linecap:square;stroke-width:2" />
	<text x="304" y="70" style="font-family:Arial;font-size:11px;text-anchor:start" dy=".3em">In 3</text>
	<line x1="400" y1="70" x2="410" y2="70" style="stroke:rgb(0, 0, 0);stroke-linecap:square;stroke-width:2" />
	<text x="396" y="70" style="font-family:Arial;font-size:11px;text-anchor:end" dy=".3em">In 2</text>
	<line x1="290" y1="80" x2="300" y2="80" style="stroke:rgb(0, 0, 0);stroke-linecap:square;stroke-width:2" />
	<text x="304" y="80" style="font-family:Arial;font-size:11px;text-anchor:start" dy=".3em">Out 3</text>
	<line x1="400" y1="80" x2="410" y2="80" style="stroke:rgb(0, 0, 0);stroke-linecap:square;stroke-width:2" />
	<text x="396" y="80" style="font-family:Arial;font-size:11px;text-anchor:end" dy=".3em">Out 2</text>
	<line x1="290" y1="90" x2="300" y2="90" style="stroke:rgb(0, 0, 0);stroke-linecap:square;stroke-width:2" />
	<text x="304" y="90" style="font-family:Arial;font-size:11px;text-anchor:start" dy=".3em">GND</text>
	<line x1="400" y1="90" x2="410" y2="90" style="stroke:rgb(0, 0, 0);stroke-linecap:square;stroke-width:2" />
	<text x="396" y="90" style="font-family:Arial;font-size:11px;text-anchor:end" dy=".3em">GND</text>
	<line x1="290" y1="100" x2="300" y2="100" style="stroke:rgb(0, 0, 0);stroke-linecap:square;stroke-width:2" />
	<text x="304" y="100" style="font-family:Arial;font-size:11px;text-anchor:start" dy=".3em">GND</text>
	<line x1="400" y1="100" x2="410" y2="100" style="stroke:rgb(0, 0, 0);stroke-linecap:square;stroke-width:2" />
	<text x="396" y="100" style="font-family:Arial;font-size:11px;text-anchor:end" dy=".3em">GND</text>
	<line x1="290" y1="110" x2="300" y2="110" style="stroke:rgb(0, 0, 0);stroke-linecap:square;stroke-width:2" />
	<text x="304" y="110" style="font-family:Arial;font-size:11px;text-anchor:start" dy=".3em">Out 4</text>
	<line x1="400" y1="110" x2="410" y2="110" style="stroke:rgb(0, 0, 0);stroke-linecap:square;stroke-width:2" />
	<text x="396" y="110" style="font-family:Arial;font-size:11px;text-anchor:end" dy=".3em">Out 1</text>
	<line x1="290" y1="120" x2="300" y2="120" style="stroke:rgb(0, 0, 0);stroke-linecap:square;stroke-width:2" />
	<text x="304" y="120" style="font-family:Arial;font-size:11px;text-anchor:start" dy=".3em">In 4</text>
	<line x1="400" y1="120" x2="410" y2="120" style="stroke:rgb(0, 0, 0);stroke-linecap:square;stroke-width:2" />
	<text x="396" y="120" style="font-family:Arial;font-size:11px;text-anchor:end" dy=".3em">In 1</text>
	<line x1="290" y1="130" x2="300" y2="130" style="stroke:rgb(0, 0, 0);stroke-linecap:square;stroke-width:2" />
	<text x="304" y="130" style="font-family:Arial;font-size:11px;text-anchor:start" dy=".3em">Vcc 1</text>
	<line x1="400" y1="130" x2="410" y2="130" style="stroke:rgb(0, 0, 0);stroke-linecap:square;stroke-width:2" />
	<text x="396" y="130" style="font-family:Arial;font-size:11px;text-anchor:end" dy=".3em">En 1, 2</text>
	<line x1="570" y1="130" x2="610" y2="130" style="stroke:rgb(0, 0, 0);stroke-linecap:square;stroke-width:2" />
	<line x1="570" y1="70" x2="610" y2="70" style="stroke:rgb(0, 0, 0);stroke-linecap:square;stroke-width:2" />
	<line x1="570" y1="70" x2="570" y2="96" style="stroke:rgb(0, 0, 0);stroke-linecap:square;stroke-width:2" />
	<line x1="570" y1="104" x2="570" y2="130" style="stroke:rgb(0, 0, 0);stroke-linecap:square;stroke-width:2" />
	<line x1="556" y1="96" x2="584" y2="96" style="stroke:rgb(0, 0, 0);stroke-linecap:square;stroke-width:2" />
	<line x1="556" y1="104" x2="584" y2="104" style="stroke:rgb(0, 0, 0);stroke-linecap:square;stroke-width:2" />
	<text x="550" y="100" style="font-family:Arial;font-size:11px;text-anchor:end" dy=".3em">100 nF</text>
	<line x1="610" y1="70" x2="610" y2="87" style="stroke:rgb(0, 0, 0);stroke-linecap:square;stroke-width:2" />
	<line x1="610" y1="113" x2="610" y2="130" style="stroke:rgb(0, 0, 0);stroke-linecap:square;stroke-width:2" />
	<ellipse cx="610" cy="100" rx="12" ry="12" style="fill-opacity:0;fill:rgb(0, 0, 0);stroke:rgb(0, 0, 0);stroke-width:2" />
	<text x="610" y="100" style="font-family:Arial;font-size:12px;text-anchor:middle" dy=".3em">M</text>
	<line x1="120" y1="130" x2="160" y2="130" style="stroke:rgb(0, 0, 0);stroke-linecap:square;stroke-width:2" />
	<line x1="120" y1="70" x2="160" y2="70" style="stroke:rgb(0, 0, 0);stroke-linecap:square;stroke-width:2" />
	<line x1="120" y1="70" x2="120" y2="96" style="stroke:rgb(0, 0, 0);stroke-linecap:square;stroke-width:2" />
	<line x1="120" y1="104" x2="120" y2="130" style="stroke:rgb(0, 0, 0);stroke-linecap:square;stroke-width:2" />
	<line x1="106" y1="96" x2="134" y2="96" style="stroke:rgb(0, 0, 0);stroke-linecap:square;stroke-width:2" />
	<line x1="106" y1="104" x2="134" y2="104" style="stroke:rgb(0, 0, 0);stroke-linecap:square;stroke-width:2" />
	<text x="100" y="100" style="font-family:Arial;font-size:11px;text-anchor:end" dy=".3em">100 nF</text>
	<line x1="160" y1="70" x2="160" y2="87" style="stroke:rgb(0, 0, 0);stroke-linecap:square;stroke-width:2" />
	<line x1="160" y1="113" x2="160" y2="130" style="stroke:rgb(0, 0, 0);stroke-linecap:square;stroke-width:2" />
	<ellipse cx="160" cy="100" rx="12" ry="12" style="fill-opacity:0;fill:rgb(0, 0, 0);stroke:rgb(0, 0, 0);stroke-width:2" />
	<text x="160" y="100" style="font-family:Arial;font-size:12px;text-anchor:middle" dy=".3em">M</text>
	<text x="350" y="690" style="font-family:Arial;font-size:11px;text-anchor:middle" dy=".3em">HC-SR05</text>
	<rect x="300" y="700" width="100" height="100" style="fill-opacity:0;stroke:rgb(0, 0, 0);stroke-width:2" />
	<line x1="290" y1="710" x2="300" y2="710" style="stroke:rgb(0, 0, 0);stroke-linecap:square;stroke-width:2" />
	<text x="304" y="710" style="font-family:Arial;font-size:11px;text-anchor:start" dy=".3em">GND</text>
	<line x1="290" y1="730" x2="300" y2="730" style="stroke:rgb(0, 0, 0);stroke-linecap:square;stroke-width:2" />
	<text x="304" y="730" style="font-family:Arial;font-size:11px;text-anchor:start" dy=".3em">Out</text>
	<line x1="290" y1="750" x2="300" y2="750" style="stroke:rgb(0, 0, 0);stroke-linecap:square;stroke-width:2" />
	<text x="304" y="750" style="font-family:Arial;font-size:11px;text-anchor:start" dy=".3em">Trig</text>
	<line x1="290" y1="770" x2="300" y2="770" style="stroke:rgb(0, 0, 0);stroke-linecap:square;stroke-width:2" />
	<text x="304" y="770" style="font-family:Arial;font-size:11px;text-anchor:start" dy=".3em">Echo</text>
	<line x1="290" y1="790" x2="300" y2="790" style="stroke:rgb(0, 0, 0);stroke-linecap:square;stroke-width:2" />
	<text x="304" y="790" style="font-family:Arial;font-size:11px;text-anchor:start" dy=".3em">Vcc</text>
	<path d="M 350,265 c -0.41874,0.0206 -0.96823,0.52856 -0.96823,0.52856 c 0,0 -0.65933,-0.37892 -1.01628,-0.36519 c -0.35696,0.0137 -0.98025,0.5694 -0.98025,0.5694 c 0,0 -0.31061,-0.19873 -0.8529,-0.13694 c -0.54229,0.0618 -0.67752,0.52135 -0.67752,0.52135 c 0,0 -1.23045,-0.11566 -1.52562,0.0697000000000001 c -0.29518,0.18535 -0.81687,0.73519 -0.81687,0.73519 c 0,0 -1.02246,-0.26772 -1.43433,0.1922 c -0.41187,0.45992 -0.0960999999999999,1.64576 -0.0960999999999999,1.64576 c 0,0 -0.47913,0.5718 -0.45167,0.95621 c 0.0274000000000001,0.38441 0.466100000000001,1.01387 0.466100000000001,1.01387 c 0,0 -0.35833,0.43967 -0.22104,0.82409 c 0.137280000000001,0.38441 0.76882,1.04511 0.76882,1.04511 c 0,0 -0.16338,0.741009999999999 0.0288000000000004,1.09797 c 0.19221,0.35694 0.79525,0.63186 0.79525,0.63186 c 0,0 -0.21829,0.41015 0.0288000000000004,0.87693 c 0.24712,0.46679 1.29017,1.15323 1.29017,1.15323 c 0,0 0.12974,0.584849999999999 0.36999,0.845700000000001 c 0.24026,0.26085 1.16044,0.45168 1.16044,0.45168 c 0,0 0.24128,0.775679999999999 0.50213,0.91297 c 0.26085,0.13729 1.2205,0.47331 1.2205,0.47331 c 0,0 -2.48527,1.18892 -3.22663,2.67163 c -0.74136,1.48273 -1.20848,5.02375 -1.20848,5.02375 c 0,0 -3.56917,2.80034 -3.59663,5.71087 c -0.0274000000000001,2.91052 1.86678,5.90548 1.86678,5.90548 c 0,0 0.85222,4.7756 1.89562,6.20339 c 1.04339,1.42781 3.76068,3.81801 4.44713,3.87293 c 0.68644,0.0549000000000035 1.01593,0.932870000000001 1.72983,1.23491 c 0.71391,0.302039999999998 3.02242,1.34543 3.02242,1.34543 c 0,0 3.34298,2.57193 5.94392,2.68846 L 358.46415,313.70181 c 0.00900000000000034,-0.000279999999996505 0.0175999999999998,-0.00200000000000244 0.0265000000000004,-0.00200000000000244 c 0.00999999999999979,0.000340000000001339 0.0192999999999994,0.00200000000000244 0.0288000000000004,0.00200000000000244 L 358.51945,313.69981 c 2.60087,-0.116860000000003 5.94392,-2.68846 5.94392,-2.68846 c 0,0 2.30611,-1.04339 3.02001,-1.34543 c 0.713909999999998,-0.302039999999998 1.0434,-1.18 1.72985,-1.23491 c 0.686440000000001,-0.0549000000000035 3.40373,-2.44512 4.44712,-3.87293 c 1.0434,-1.42779 1.89562,-6.20339 1.89562,-6.20339 c 0,0 1.89424,-2.99496 1.86679,-5.90548 c -0.0274999999999999,-2.91053 -3.59663,-5.71087 -3.59663,-5.71087 c 0,0 -0.467120000000001,-3.54102 -1.20849,-5.02375 c -0.74136,-1.48271 -3.22662,-2.67163 -3.22662,-2.67163 c 0,0 0.962039999999998,-0.33602 1.2229,-0.47331 c 0.260840000000002,-0.13729 0.49973,-0.91297 0.49973,-0.91297 c 0,0 0.920179999999998,-0.19083 1.16043,-0.45168 c 0.240259999999999,-0.26085 0.372399999999999,-0.845700000000001 0.372399999999999,-0.845700000000001 c 0,0 1.04305,-0.686439999999999 1.29016,-1.15323 c 0.247119999999999,-0.46678 0.0264999999999986,-0.87693 0.0264999999999986,-0.87693 c 0,0 0.605450000000001,-0.27492 0.797650000000001,-0.63186 c 0.192209999999999,-0.356960000000001 0.0264999999999986,-1.09797 0.0264999999999986,-1.09797 c 0,0 0.631530000000001,-0.6607 0.768830000000001,-1.04511 c 0.13729,-0.38442 -0.218640000000001,-0.82409 -0.218640000000001,-0.82409 c 0,0 0.438639999999999,-0.62946 0.466100000000001,-1.01387 c 0.0274000000000001,-0.38441 -0.454090000000001,-0.95621 -0.454090000000001,-0.95621 c 0,0 0.315770000000001,-1.18584 -0.0960999999999999,-1.64576 c -0.411860000000001,-0.45992 -1.43432,-0.1922 -1.43432,-0.1922 c 0,0 -0.521699999999999,-0.54984 -0.816870000000002,-0.73519 c -0.295169999999999,-0.18533 -1.52322,-0.0697000000000001 -1.52322,-0.0697000000000001 c 0,0 -0.137630000000001,-0.45957 -0.679919999999999,-0.52135 c -0.542300000000001,-0.0618 -0.85051,0.13694 -0.85051,0.13694 c 0,0 -0.625689999999999,-0.55567 -0.98264,-0.5694 c -0.356960000000001,-0.0137 -1.01628,0.36519 -1.01628,0.36519 c 0,0 -0.549510000000001,-0.50797 -0.968229999999998,-0.52856 c -0.41873,-0.0206 -1.06193,0.65108 -1.06193,0.65108 c 0,0 -0.23545,-0.28898 -0.76402,-0.25467 c -0.528560000000001,0.0344 -1.00907,0.49493 -1.00907,0.49493 c 0,0 -0.54881,-0.12939 -1.19406,-0.0745 c -0.64526,0.0548999999999999 -1.05542,0.87694 -1.16524,0.87694 c -0.658989999999999,-0.10983 -1.15323,0.53748 -1.82595,1.10037 c -0.58562,0.49001 -1.29382,2.39083 -1.46796,2.87586 c -0.173780000000001,-0.48409 -0.8845,-2.38565 -1.47037,-2.87586 c -0.67271,-0.56289 -1.16695,-1.2102 -1.82593,-1.10037 c -0.10984,0 -0.52239,-0.82202 -1.16765,-0.87694 c -0.64525,-0.0548999999999999 -1.19406,0.0745 -1.19406,0.0745 c 0,0 -0.48051,-0.4606 -1.00908,-0.49493 c -0.52856,-0.0343 -0.76161,0.25467 -0.76161,0.25467 c 0,0 -0.6456,-0.67168 -1.06433,-0.65108 Z M 347.96037,266.36224 c 0.38831,-0.0388999999999999 2.17672,0.93219 2.17672,0.93219 c 0,0 -0.44721,-0.9516 -0.17539,-0.93219 c 0.27182,0.0194000000000001 1.72743,1.18447 1.72743,1.18447 c 0,0 -0.15429,-1.06792 0.13695,-0.95142 c 0.29123,0.11649 1.45595,1.37907 1.45595,1.37907 c 0,0 0.0971000000000002,-0.95181 0.23305,-0.91297 c 0.1359,0.0388000000000002 1.45594,1.65055 1.45594,1.65055 c 0,0 -0.2539,-1.04843 0.38681,-0.71836 c 0.64072,0.33006 1.92347,2.56258 2.02055,4.3294 c 0.0971000000000002,1.76682 -1.55445,2.4458 -1.55445,2.4458 c 0,0 -4.81498,-3.56049 -9.10568,-4.94926 c 2.35419,0.85621 8.13648,5.24217 8.23355,5.97996 c 0.0971000000000002,0.73779 -1.496,1.86392 -2.29203,2.38814 c -0.79604,0.52422 -3.92097,0.44688 -3.92097,0.44688 c 0,0 1.84466,-0.64188 0.69914,-0.60305 c -1.14552,0.0388999999999999 -2.4482,-0.50454 -2.4482,-0.50454 c 0,0 0.66109,-0.11636 0.62226,-0.25226 c -0.0388999999999999,-0.135910000000001 -2.36892,-1.08836 -2.36892,-1.08836 c 0,0 1.0481,0.0592000000000006 0.98985,-0.0960999999999999 c -0.0583,-0.15532 -2.17431,-1.47517 -2.17431,-1.47517 c 0,0 0.93116,0.0954999999999995 0.79524,-0.0792999999999999 c -0.13591,-0.17473 -1.55204,-1.4151 -1.55204,-1.4151 c 0,0 0.73797,0.13429 0.69914,-0.0792999999999999 c -0.0388999999999999,-0.21357 -1.3214,-1.59049 -1.3214,-1.59049 c 0,0 1.06913,0.15494 1.06913,0.0385 c 0,-0.11648 -1.3214,-1.66977 -1.3214,-1.66977 c 0,0 0.87413,0.33026 0.91297,-0.0191999999999997 c 0.0388999999999999,-0.34947 -0.73759,-1.78749 -0.73759,-1.78749 L 344.71932,267.97437 c 0,0 -0.75655,-0.46694 -0.54297,-0.62226 c 0.21357,-0.15533 2.58034,0.1946 2.58034,0.1946 c 0,0 -0.63999,-0.71738 -0.30994,-0.81446 c 0.33007,-0.0971 2.02056,0.60064 2.02056,0.60064 c 0,0 -0.89525,-0.93181 -0.50694,-0.97064 Z M 366.9838,266.36225 c 0.271809999999999,-0.0194000000000001 -0.17539,0.93219 -0.17539,0.93219 c 0,0 1.786,-0.97102 2.17432,-0.93219 c 0.388310000000001,0.0388999999999999 -0.504539999999999,0.97063 -0.504539999999999,0.97063 c 0,0 1.68807,-0.69771 2.01814,-0.60064 c 0.330069999999999,0.0971 -0.309930000000001,0.81448 -0.309930000000001,0.81448 c 0,0 2.36917,-0.34994 2.58274,-0.19462 c 0.21358,0.15533 -0.545369999999998,0.62227 -0.545369999999998,0.62227 L 374.34042,268.01287 c 0,0 -0.776420000000002,1.43801 -0.737580000000001,1.78749 c 0.0387999999999984,0.34949 0.912970000000001,0.0191999999999997 0.912970000000001,0.0191999999999997 c 0,0 -1.31901,1.55328 -1.31901,1.66978 c 0,0.11649 1.06674,-0.0385 1.06674,-0.0385 c 0,0 -1.28258,1.37692 -1.3214,1.59049 c -0.0389000000000017,0.213570000000001 0.69914,0.0792999999999999 0.69914,0.0792999999999999 c 0,0 -1.41614,1.24036 -1.55206,1.41511 c -0.135899999999999,0.17474 0.795249999999999,0.0792999999999999 0.795249999999999,0.0792999999999999 c 0,0 -2.11606,1.31984 -2.17431,1.47517 c -0.0582999999999991,0.15532 0.989850000000001,0.0960999999999999 0.989850000000001,0.0960999999999999 c 0,0 -2.33009,0.952450000000001 -2.36892,1.08835 c -0.0389000000000017,0.13592 0.622260000000001,0.252280000000001 0.622260000000001,0.252280000000001 c 0,0 -1.30028,0.54336 -2.44579,0.504530000000001 c -1.14553,-0.0388999999999999 0.69914,0.60304 0.69914,0.60304 c 0,0 -3.12734,0.0772999999999993 -3.92337,-0.446870000000001 c -0.79604,-0.52422 -2.38672,-1.65035 -2.28964,-2.38814 c 0.0970999999999993,-0.73779 5.87697,-5.12375 8.23116,-5.97996 c -4.2907,1.38878 -9.10569,4.94927 -9.10569,4.94927 c 0,0 -1.65153,-0.678990000000001 -1.55445,-2.44581 c 0.0970999999999993,-1.76681 1.37983,-3.99934 2.02055,-4.3294 c 0.64071,-0.33007 0.38921,0.71836 0.38921,0.71836 c 0,0 1.32004,-1.61172 1.45595,-1.65056 c 0.135910000000001,-0.0388000000000002 0.23305,0.91298 0.23305,0.91298 c 0,0 1.16471,-1.26257 1.45594,-1.37906 c 0.29124,-0.1165 0.134539999999999,0.9514 0.134539999999999,0.9514 c 0,0 1.45803,-1.16504 1.72985,-1.18446 Z M 358.44992,278.5288 c 2.75994,0 4.99732,1.42671 4.99732,3.18579 c 0,1.75908 -2.23738,3.18578 -4.99732,3.18578 c -2.75994,0 -4.99731,-1.4267 -4.99731,-3.18578 c 0,-1.75908 2.23737,-3.18579 4.99731,-3.18579 Z M 351.15817,279.79735 c 0.5561,-0.000679999999999126 0.97621,0.0808999999999997 1.12679,0.254670000000001 c 0.53543,0.617800000000001 -3.13052,3.58461 -3.13052,3.58461 c 0,0 -3.95392,3.17069 -4.5168,2.77255 c -0.56289,-0.398140000000001 0.57866,-3.65223 1.86918,-5.05257 c 0.92756,-1.0065 3.2302,-1.55744 4.65135,-1.55926 Z M 365.39811,279.79735 c 1.42114,0.00200000000000067 3.72379,0.552759999999999 4.65134,1.55926 c 1.29052,1.40034 2.43208,4.65443 1.8692,5.05257 c -0.562889999999999,0.398140000000001 -4.51681,-2.77255 -4.51681,-2.77255 c 0,0 -3.66595,-2.96681 -3.13053,-3.58461 c 0.150589999999999,-0.17376 0.5707,-0.255380000000001 1.1268,-0.254670000000001 Z M 364.01423,284.62889 c 0.0404,9.99999999997669E-05 0.0820000000000007,0.00199999999999889 0.122540000000001,0.00199999999999889 c 1.94609,0.0454000000000008 3.94109,1.38247 4.9853,3.55578 c 1.39228,2.89776 0.570129999999999,6.18395 -1.83555,7.3398 c -2.40568,1.15586 -5.48383,-0.254390000000001 -6.87611,-3.15215 c -1.39228,-2.89775 -0.57254,-6.18395 1.83315,-7.3398 c 0.52624,-0.252849999999999 1.08466,-0.384969999999999 1.65055,-0.40363 c 0.0404,-0.00199999999999889 0.0797000000000008,-0.00199999999999889 0.12012,-0.00199999999999889 Z M 352.76307,285.18147 c 0.64871,-0.0151000000000003 1.2918,0.112269999999999 1.89322,0.401229999999998 c 2.40568,1.15585 3.22543,4.44205 1.83315,7.33981 c -1.39228,2.89775 -4.47043,4.3104 -6.87611,3.15455 c -2.40569,-1.15585 -3.22784,-4.44205 -1.83555,-7.33981 c 1.0442,-2.17331 3.03921,-3.51042 4.98529,-3.55578 Z M 344.02018,288.37446 c 1.20312,0.0128999999999984 1.04889,3.0667 0.92018,4.81713 c -0.13729,1.86713 -1.56372,4.22918 -2.27762,4.33902 c -0.71391,0.109830000000002 -1.6485,-2.22374 -1.70341,-4.94206 c -0.0548999999999999,-2.71831 2.80137,-4.17564 2.80137,-4.17564 c 0.0926999999999998,-0.0274000000000001 0.17927,-0.0393000000000008 0.25948,-0.0384999999999991 Z M 372.56493,288.37441 c 0.0802000000000014,-0.000820000000000931 0.166810000000002,0.0109999999999992 0.25948,0.0384999999999991 c 0,0 2.85629,1.45733 2.80137,4.17565 c -0.0548999999999999,2.71832 -0.989509999999999,5.05188 -1.7034,4.94206 c -0.713899999999999,-0.109839999999998 -2.14274,-2.47189 -2.28003,-4.33902 c -0.128710000000002,-1.75044 -0.280539999999998,-4.80425 0.92258,-4.81713 Z M 358.39466,295.11364 c 3.03291,0 5.49225,2.45935 5.49225,5.49224 c 0,3.03291 -2.45934,5.48985 -5.49225,5.48985 c -3.0329,0 -5.49224,-2.45694 -5.49224,-5.48985 c 0,-3.03289 2.45934,-5.49224 5.49224,-5.49224 Z M 370.36659,297.88379 c 0.998860000000001,-0.0183999999999997 1.67699,0.475709999999999 1.67699,0.475709999999999 c 0.906099999999999,0.686439999999997 0.576260000000001,3.40304 -0.055299999999999,5.10542 c -0.631519999999998,1.70239 -2.38916,2.55392 -2.93832,3.13054 c -0.549160000000001,0.576610000000002 -3.51494,0.715269999999997 -4.09155,0.0287999999999968 c -0.576610000000001,-0.686450000000001 -0.300660000000001,-2.8841 0.0288000000000004,-3.81766 c 0.32949,-0.933570000000003 0.85188,-1.83967 2.99359,-3.84409 c 0.870069999999998,-0.814300000000003 1.70231,-1.06612 2.38573,-1.07875 Z M 346.12236,297.96066 c 0.68342,0.0127000000000024 1.51806,0.264449999999997 2.38813,1.07874 c 2.14171,2.00442 2.66409,2.91053 2.99358,3.84409 c 0.3295,0.93356 0.60305,3.13122 0.0265,3.81766 c -0.57662,0.686439999999997 -3.54239,0.547780000000003 -4.09155,-0.0287999999999968 c -0.54916,-0.576619999999998 -2.3068,-1.42575 -2.93833,-3.12813 c -0.63153,-1.70239 -0.96136,-4.42139 -0.0552000000000001,-5.10783 c 0,0 0.67813,-0.494160000000001 1.67698,-0.475709999999999 Z M 358.28419,307.05675 c 0,0 5.4109,0.274569999999997 5.27361,1.72984 c -0.13729,1.45526 -3.37696,3.37902 -4.74985,3.35157 c -1.37288,-0.0274000000000001 -5.68445,-1.09866 -5.68445,-2.93833 c 0,-1.83967 5.16069,-2.14308 5.16069,-2.14308" style="fill-opacity:0;fill:rgb(0, 0, 0);stroke:rgb(0, 0, 0);stroke-linecap:square;stroke-width:1" />
	<rect x="295" y="260" width="120" height="400" style="fill-opacity:0;stroke:rgb(0, 0, 0);stroke-width:2" />
	<line x1="290" y1="270" x2="295" y2="270" style="stroke:rgb(0, 0, 0);stroke-linecap:square;stroke-width:2" />
	<line x1="290" y1="290" x2="295" y2="290" style="stroke:rgb(0, 0, 0);stroke-linecap:square;stroke-width:2" />
	<line x1="290" y1="310" x2="295" y2="310" style="stroke:rgb(0, 0, 0);stroke-linecap:square;stroke-width:2" />
	<line x1="290" y1="330" x2="295" y2="330" style="stroke:rgb(0, 0, 0);stroke-linecap:square;stroke-width:2" />
	<line x1="290" y1="350" x2="295" y2="350" style="stroke:rgb(0, 0, 0);stroke-linecap:square;stroke-width:2" />
	<line x1="290" y1="370" x2="295" y2="370" style="stroke:rgb(0, 0, 0);stroke-linecap:square;stroke-width:2" />
	<line x1="290" y1="390" x2="295" y2="390" style="stroke:rgb(0, 0, 0);stroke-linecap:square;stroke-width:2" />
	<line x1="290" y1="410" x2="295" y2="410" style="stroke:rgb(0, 0, 0);stroke-linecap:square;stroke-width:2" />
	<line x1="290" y1="430" x2="295" y2="430" style="stroke:rgb(0, 0, 0);stroke-linecap:square;stroke-width:2" />
	<line x1="290" y1="450" x2="295" y2="450" style="stroke:rgb(0, 0, 0);stroke-linecap:square;stroke-width:2" />
	<line x1="290" y1="470" x2="295" y2="470" style="stroke:rgb(0, 0, 0);stroke-linecap:square;stroke-width:2" />
	<line x1="290" y1="490" x2="295" y2="490" style="stroke:rgb(0, 0, 0);stroke-linecap:square;stroke-width:2" />
	<line x1="290" y1="510" x2="295" y2="510" style="stroke:rgb(0, 0, 0);stroke-linecap:square;stroke-width:2" />
	<line x1="290" y1="450" x2="295" y2="450" style="stroke:rgb(0, 0, 0);stroke-linecap:square;stroke-width:2" />
	<line x1="290" y1="470" x2="295" y2="470" style="stroke:rgb(0, 0, 0);stroke-linecap:square;stroke-width:2" />
	<line x1="290" y1="490" x2="295" y2="490" style="stroke:rgb(0, 0, 0);stroke-linecap:square;stroke-width:2" />
	<line x1="290" y1="510" x2="295" y2="510" style="stroke:rgb(0, 0, 0);stroke-linecap:square;stroke-width:2" />
	<line x1="290" y1="530" x2="295" y2="530" style="stroke:rgb(0, 0, 0);stroke-linecap:square;stroke-width:2" />
	<line x1="290" y1="550" x2="295" y2="550" style="stroke:rgb(0, 0, 0);stroke-linecap:square;stroke-width:2" />
	<line x1="290" y1="570" x2="295" y2="570" style="stroke:rgb(0, 0, 0);stroke-linecap:square;stroke-width:2" />
	<line x1="290" y1="590" x2="295" y2="590" style="stroke:rgb(0, 0, 0);stroke-linecap:square;stroke-width:2" />
	<line x1="290" y1="610" x2="295" y2="610" style="stroke:rgb(0, 0, 0);stroke-linecap:square;stroke-width:2" />
	<line x1="290" y1="630" x2="295" y2="630" style="stroke:rgb(0, 0, 0);stroke-linecap:square;stroke-width:2" />
	<line x1="290" y1="650" x2="295" y2="650" style="stroke:rgb(0, 0, 0);stroke-linecap:square;stroke-width:2" />
	<line x1="415" y1="270" x2="420" y2="270" style="stroke:rgb(0, 0, 0);stroke-linecap:square;stroke-width:2" />
	<line x1="415" y1="290" x2="420" y2="290" style="stroke:rgb(0, 0, 0);stroke-linecap:square;stroke-width:2" />
	<line x1="415" y1="310" x2="420" y2="310" style="stroke:rgb(0, 0, 0);stroke-linecap:square;stroke-width:2" />
	<line x1="415" y1="330" x2="420" y2="330" style="stroke:rgb(0, 0, 0);stroke-linecap:square;stroke-width:2" />
	<line x1="415" y1="350" x2="420" y2="350" style="stroke:rgb(0, 0, 0);stroke-linecap:square;stroke-width:2" />
	<line x1="415" y1="370" x2="420" y2="370" style="stroke:rgb(0, 0, 0);stroke-linecap:square;stroke-width:2" />
	<line x1="415" y1="390" x2="420" y2="390" style="stroke:rgb(0, 0, 0);stroke-linecap:square;stroke-width:2" />
	<line x1="415" y1="410" x2="420" y2="410" style="stroke:rgb(0, 0, 0);stroke-linecap:square;stroke-width:2" />
	<line x1="415" y1="430" x2="420" y2="430" style="stroke:rgb(0, 0, 0);stroke-linecap:square;stroke-width:2" />
	<line x1="415" y1="450" x2="420" y2="450" style="stroke:rgb(0, 0, 0);stroke-linecap:square;stroke-width:2" />
	<line x1="415" y1="470" x2="420" y2="470" style="stroke:rgb(0, 0, 0);stroke-linecap:square;stroke-width:2" />
	<line x1="415" y1="490" x2="420" y2="490" style="stroke:rgb(0, 0, 0);stroke-linecap:square;stroke-width:2" />
	<line x1="415" y1="510" x2="420" y2="510" style="stroke:rgb(0, 0, 0);stroke-linecap:square;stroke-width:2" />
	<line x1="415" y1="530" x2="420" y2="530" style="stroke:rgb(0, 0, 0);stroke-linecap:square;stroke-width:2" />
	<line x1="415" y1="550" x2="420" y2="550" style="stroke:rgb(0, 0, 0);stroke-linecap:square;stroke-width:2" />
	<line x1="415" y1="570" x2="420" y2="570" style="stroke:rgb(0, 0, 0);stroke-linecap:square;stroke-width:2" />
	<line x1="415" y1="590" x2="420" y2="590" style="stroke:rgb(0, 0, 0);stroke-linecap:square;stroke-width:2" />
	<line x1="415" y1="610" x2="420" y2="610" style="stroke:rgb(0, 0, 0);stroke-linecap:square;stroke-width:2" />
	<line x1="415" y1="630" x2="420" y2="630" style="stroke:rgb(0, 0, 0);stroke-linecap:square;stroke-width:2" />
	<line x1="415" y1="650" x2="420" y2="650" style="stroke:rgb(0, 0, 0);stroke-linecap:square;stroke-width:2" />
	<text x="297" y="270" style="font-family:Arial;font-size:11px;text-anchor:start" dy=".3em">3V3</text>
	<text x="297" y="290" style="font-family:Arial;font-size:11px;text-anchor:start" dy=".3em">GPIO2</text>
	<text x="297" y="310" style="font-family:Arial;font-size:11px;text-anchor:start" dy=".3em">GPIO3</text>
	<text x="297" y="330" style="font-family:Arial;font-size:11px;text-anchor:start" dy=".3em">GPIO4</text>
	<text x="297" y="350" style="font-family:Arial;font-size:11px;text-anchor:start" dy=".3em">GND</text>
	<text x="297" y="370" style="font-family:Arial;font-size:11px;text-anchor:start" dy=".3em">GPIO17</text>
	<text x="297" y="390" style="font-family:Arial;font-size:11px;text-anchor:start" dy=".3em">GPIO27</text>
	<text x="297" y="410" style="font-family:Arial;font-size:11px;text-anchor:start" dy=".3em">GPIO22</text>
	<text x="297" y="430" style="font-family:Arial;font-size:11px;text-anchor:start" dy=".3em">3V3</text>
	<text x="297" y="450" style="font-family:Arial;font-size:11px;text-anchor:start" dy=".3em">GPIO10</text>
	<text x="297" y="470" style="font-family:Arial;font-size:11px;text-anchor:start" dy=".3em">GPIO9</text>
	<text x="297" y="490" style="font-family:Arial;font-size:11px;text-anchor:start" dy=".3em">GPIO11</text>
	<text x="297" y="510" style="font-family:Arial;font-size:11px;text-anchor:start" dy=".3em">GND</text>
	<text x="297" y="530" style="font-family:Arial;font-size:11px;text-anchor:start" dy=".3em">ID_SD</text>
	<text x="297" y="550" style="font-family:Arial;font-size:11px;text-anchor:start" dy=".3em">GPIO5</text>
	<text x="297" y="570" style="font-family:Arial;font-size:11px;text-anchor:start" dy=".3em">GPIO6</text>
	<text x="297" y="590" style="font-family:Arial;font-size:11px;text-anchor:start" dy=".3em">GPIO13</text>
	<text x="297" y="610" style="font-family:Arial;font-size:11px;text-anchor:start" dy=".3em">GPIO19</text>
	<text x="297" y="630" style="font-family:Arial;font-size:11px;text-anchor:start" dy=".3em">GPIO26</text>
	<text x="297" y="650" style="font-family:Arial;font-size:11px;text-anchor:start" dy=".3em">GND</text>
	<text x="413" y="270" style="font-family:Arial;font-size:11px;text-anchor:end" dy=".3em">5V0</text>
	<text x="413" y="290" style="font-family:Arial;font-size:11px;text-anchor:end" dy=".3em">5V0</text>
	<text x="413" y="310" style="font-family:Arial;font-size:11px;text-anchor:end" dy=".3em">GND</text>
	<text x="413" y="330" style="font-family:Arial;font-size:11px;text-anchor:end" dy=".3em">GPIO14</text>
	<text x="413" y="350" style="font-family:Arial;font-size:11px;text-anchor:end" dy=".3em">GPIO15</text>
	<text x="413" y="370" style="font-family:Arial;font-size:11px;text-anchor:end" dy=".3em">GPIO18</text>
	<text x="413" y="390" style="font-family:Arial;font-size:11px;text-anchor:end" dy=".3em">GND</text>
	<text x="413" y="410" style="font-family:Arial;font-size:11px;text-anchor:end" dy=".3em">GPIO23</text>
	<text x="413" y="430" style="font-family:Arial;font-size:11px;text-anchor:end" dy=".3em">GPIO24</text>
	<text x="413" y="450" style="font-family:Arial;font-size:11px;text-anchor:end" dy=".3em">GND</text>
	<text x="413" y="470" style="font-family:Arial;font-size:11px;text-anchor:end" dy=".3em">GPIO25</text>
	<text x="413" y="490" style="font-family:Arial;font-size:11px;text-anchor:end" dy=".3em">GPIO8</text>
	<text x="413" y="510" style="font-family:Arial;font-size:11px;text-anchor:end" dy=".3em">GPIO7</text>
	<text x="413" y="530" style="font-family:Arial;font-size:11px;text-anchor:end" dy=".3em">ID_SC</text>
	<text x="413" y="550" style="font-family:Arial;font-size:11px;text-anchor:end" dy=".3em">GND</text>
	<text x="413" y="570" style="font-family:Arial;font-size:11px;text-anchor:end" dy=".3em">GPIO12</text>
	<text x="413" y="590" style="font-family:Arial;font-size:11px;text-anchor:end" dy=".3em">GND</text>
	<text x="413" y="610" style="font-family:Arial;font-size:11px;text-anchor:end" dy=".3em">GPIO16</text>
	<text x="413" y="630" style="font-family:Arial;font-size:11px;text-anchor:end" dy=".3em">GPIO20</text>
	<text x="413" y="650" style="font-family:Arial;font-size:11px;text-anchor:end" dy=".3em">GPIO21</text>
	<ellipse cx="30" cy="470" rx="2" ry="2" style="fill-opacity:1;fill:rgb(0, 0, 0);stroke:rgb(0, 0, 0);stroke-width:2" />
	<ellipse cx="30" cy="500" rx="2" ry="2" style="fill-opacity:1;fill:rgb(0, 0, 0);stroke:rgb(0, 0, 0);stroke-width:2" />
	<ellipse cx="500" cy="60" rx="2" ry="2" style="fill-opacity:1;fill:rgb(0, 0, 0);stroke:rgb(0, 0, 0);stroke-width:2" />
	<ellipse cx="260" cy="90" rx="2" ry="2" style="fill-opacity:1;fill:rgb(0, 0, 0);stroke:rgb(0, 0, 0);stroke-width:2" />
	<ellipse cx="450" cy="260" rx="2" ry="2" style="fill-opacity:1;fill:rgb(0, 0, 0);stroke:rgb(0, 0, 0);stroke-width:2" />
	<ellipse cx="500" cy="260" rx="2" ry="2" style="fill-opacity:1;fill:rgb(0, 0, 0);stroke:rgb(0, 0, 0);stroke-width:2" />
	<ellipse cx="260" cy="100" rx="2" ry="2" style="fill-opacity:1;fill:rgb(0, 0, 0);stroke:rgb(0, 0, 0);stroke-width:2" />
	<ellipse cx="500" cy="100" rx="2" ry="2" style="fill-opacity:1;fill:rgb(0, 0, 0);stroke:rgb(0, 0, 0);stroke-width:2" />
	<ellipse cx="500" cy="90" rx="2" ry="2" style="fill-opacity:1;fill:rgb(0, 0, 0);stroke:rgb(0, 0, 0);stroke-width:2" />
	<ellipse cx="160" cy="130" rx="2" ry="2" style="fill-opacity:1;fill:rgb(0, 0, 0);stroke:rgb(0, 0, 0);stroke-width:2" />
	<ellipse cx="160" cy="70" rx="2" ry="2" style="fill-opacity:1;fill:rgb(0, 0, 0);stroke:rgb(0, 0, 0);stroke-width:2" />
	<ellipse cx="570" cy="130" rx="2" ry="2" style="fill-opacity:1;fill:rgb(0, 0, 0);stroke:rgb(0, 0, 0);stroke-width:2" />
	<ellipse cx="570" cy="70" rx="2" ry="2" style="fill-opacity:1;fill:rgb(0, 0, 0);stroke:rgb(0, 0, 0);stroke-width:2" />
	<ellipse cx="410" cy="130" rx="2" ry="2" style="fill-opacity:1;fill:rgb(0, 0, 0);stroke:rgb(0, 0, 0);stroke-width:2" />
	<ellipse cx="200" cy="710" rx="2" ry="2" style="fill-opacity:1;fill:rgb(0, 0, 0);stroke:rgb(0, 0, 0);stroke-width:2" />
	<ellipse cx="280" cy="650" rx="2" ry="2" style="fill-opacity:1;fill:rgb(0, 0, 0);stroke:rgb(0, 0, 0);stroke-width:2" />
</svg>